<?xml version="1.0" encoding="UTF-8" standalone="no"?>
<svg
   xmlns:dc="http://purl.org/dc/elements/1.1/"
   xmlns:cc="http://creativecommons.org/ns#"
   xmlns:rdf="http://www.w3.org/1999/02/22-rdf-syntax-ns#"
   xmlns:svg="http://www.w3.org/2000/svg"
   xmlns="http://www.w3.org/2000/svg"
   xmlns:sodipodi="http://sodipodi.sourceforge.net/DTD/sodipodi-0.dtd"
   xmlns:inkscape="http://www.inkscape.org/namespaces/inkscape"
   width="210mm"
   height="297mm"
   viewBox="0 0 210 297"
   version="1.1"
   id="svg876"
   sodipodi:docname="Logo.svg"
   inkscape:export-filename="C:\Users\jbrown\Desktop\Logo.png"
   inkscape:export-xdpi="96"
   inkscape:export-ydpi="96"
   inkscape:version="1.0.1 (3bc2e813f5, 2020-09-07)">
  <defs
     id="defs870" />
  <sodipodi:namedview
     id="base"
     pagecolor="#ffffff"
     bordercolor="#666666"
     borderopacity="1.0"
     inkscape:pageopacity="0.0"
     inkscape:pageshadow="2"
     inkscape:zoom="0.70710678"
     inkscape:cx="743.33693"
     inkscape:cy="562.89167"
     inkscape:document-units="mm"
     inkscape:current-layer="layer1"
     inkscape:document-rotation="0"
     showgrid="false"
     inkscape:window-width="1267"
     inkscape:window-height="1040"
     inkscape:window-x="2540"
     inkscape:window-y="44"
     inkscape:window-maximized="0" />
  <metadata
     id="metadata873">
    <rdf:RDF>
      <cc:Work
         rdf:about="">
        <dc:format>image/svg+xml</dc:format>
        <dc:type
           rdf:resource="http://purl.org/dc/dcmitype/StillImage" />
      </cc:Work>
    </rdf:RDF>
  </metadata>
  <g
     inkscape:label="Layer 1"
     inkscape:groupmode="layer"
     id="layer1">
    <path
       id="path859"
       style="fill:#619ab2;fill-opacity:1;stroke-width:5.34077"
       transform="scale(0.26458333)"
       d="m 401.14648,193.70117 c -28.90627,0.93169 -72.73884,50.64378 -126.02929,144.28906 -47.26678,83.06041 -76.07038,141.33706 -103.16602,208.73243 -43.55807,108.34286 -48.53996,159.78125 -15.47461,159.78125 19.67276,0 37.11146,-13.51173 125.02735,-96.88282 42.53546,-40.33682 78.23022,-72.44614 79.32226,-71.35351 1.09265,1.09258 -12.70399,38.3801 -30.66015,82.86133 -17.95617,44.48122 -31.28082,83.08859 -29.60743,85.79492 6.54057,10.58305 13.76598,3.70199 26.61133,-25.34375 43.42242,-98.18582 162.72852,-222.70808 162.72852,-169.84375 0,18.29114 -10.27629,41.46997 -35.97266,81.14258 -26.675,41.18343 -50.94641,100.59166 -46.64062,114.1582 h 0.002 c 5.87887,18.52259 26.69872,10.98777 82.60351,-29.89844 61.79823,-45.19634 84.99471,-54.05507 155.49219,-59.37695 48.19654,-3.63833 63.98482,-9.72386 40.51172,-15.61524 -15.64978,-3.92783 -89.934,5.85197 -126.1582,16.60938 -24.1324,7.16659 -63.78155,30.73692 -111.16016,66.08008 -9.51046,7.09462 -18.80551,11.38478 -20.65429,9.53515 -4.42288,-4.42284 25.76248,-68.57912 48.26367,-102.57812 36.93191,-55.80431 44.41392,-105.71466 16.88086,-112.625 -18.28256,-4.58865 -43.4566,9.91513 -82.68946,47.64453 -18.77008,18.0508 -32.93032,29.21473 -31.46484,24.80859 1.46445,-4.40617 5.83223,-16.8655 9.70508,-27.6875 5.78373,-16.17131 5.79738,-21.16904 0.0801,-28.05859 -6.07771,-7.3231 -19.19384,3.30916 -103.75586,84.10352 -92.20979,88.10103 -118.0299,110.5039 -127.36133,110.5039 -2.2832,0 -4.15235,-9.02268 -4.15235,-20.05078 0,-21.59913 14.8848,-66.88266 46.72266,-142.14258 18.63441,-44.04948 22.92066,-49.77265 61.21289,-81.72851 53.75648,-44.86122 101.00099,-96.40214 133.14063,-145.25 32.44342,-49.3096 40.72206,-76.47083 28.83593,-94.61133 -5.89442,-8.99601 -13.3445,-13.28326 -22.19336,-12.99805 z m 4.80274,16.10938 c 3.01372,0 4.05215,8.87842 2.44336,20.87695 -3.696,27.55696 -40.59038,83.62121 -89.08789,135.37695 -37.5819,40.10676 -69.74219,67.56109 -69.74219,59.53711 0,-6.4679 58.22214,-109.03301 84.13086,-148.20508 21.8625,-33.05428 58.78052,-67.58593 72.25586,-67.58593 z m -239.5332,256.66211 c -0.0352,0.0156 -0.0757,0.0319 -0.0937,0.0469 -0.008,0.007 -0.0169,0.0144 -0.0254,0.0215 0.0449,-0.0202 0.0898,-0.0405 0.13476,-0.0605 -0.005,-0.002 -0.0103,-0.005 -0.0156,-0.008 z" />
    <path
       style="fill:#552200;stroke:none;stroke-width:0.267269"
       d="m 96.276763,209.47865 c -0.0735,-0.07 -1.396484,-0.20606 -2.939965,-0.3024 -3.388543,-0.21149 -4.056967,-0.30406 -8.10799,-1.12282 -6.423691,-1.29831 -16.622614,-5.3056 -21.959831,-8.62831 -0.587994,-0.36606 -1.309918,-0.79423 -1.604275,-0.9515 -1.797166,-0.96018 -5.565669,-3.76479 -7.53718,-5.60935 -3.066439,-2.86899 -3.959659,-4.82793 -2.75204,-6.03555 1.096698,-1.0967 2.979584,-0.39702 7.216278,2.68155 8.60579,6.25336 14.367497,9.51674 20.003013,11.32954 6.319631,2.03285 9.638583,2.54749 17.705681,2.74542 11.938256,0.29291 19.230866,-1.11746 29.095916,-5.62709 5.2059,-2.37978 7.19678,-3.62273 12.03721,-7.51514 2.33141,-1.87479 2.07103,-1.63911 5.64409,-5.10879 4.0498,-3.93264 7.30646,-7.69124 8.77866,-10.13171 3.35957,-5.56918 5.07172,-7.12911 7.3547,-6.70082 1.15634,0.21693 1.54478,0.85774 1.21563,2.00542 -0.25873,0.90216 -1.72265,3.62799 -2.93515,5.4653 -0.39963,0.60554 -1.53462,2.32579 -2.52223,3.82277 -0.9876,1.49699 -2.90912,4.02268 -4.27005,5.61266 -11.32782,13.23438 -26.98699,21.52698 -44.5335,23.58354 -2.74817,0.3221 -9.702549,0.66478 -9.888967,0.48728 z"
       id="path1449" />
    <path
       style="fill:#552200;stroke:none;stroke-width:0.267269"
       d="m 161.80588,157.37025 c -0.43599,-0.43599 -0.40724,-3.09197 0.10542,-9.73884 0.61037,-7.91367 0.0839,-14.46584 -1.74728,-21.74551 -2.28269,-9.07463 -7.5301,-19.0373 -13.5065,-25.64329 -4.33244,-4.788841 -8.21776,-8.023383 -14.83928,-12.353754 -5.7485,-3.759425 -9.50513,-5.621727 -12.62595,-6.25915 -5.23348,-1.068933 -8.22107,-2.567895 -8.22107,-4.124757 0,-1.980263 3.28982,-2.653225 7.75081,-1.585499 12.77549,3.057781 29.02309,15.142035 37.53477,27.91672 3.06366,4.59807 6.90662,12.7098 8.42023,17.77342 1.63576,5.47229 2.31551,12.64355 2.0394,21.5152 -0.32406,10.41228 -0.74878,13.21613 -2.12949,14.05807 -0.94054,0.57353 -2.30311,0.66534 -2.78106,0.18739 z"
       id="path1457" />
    <path
       style="fill:#552200;stroke:none;stroke-width:0.267269"
       d="m 33.25516,161.50494 c -1.321102,-2.93261 -1.65191,-6.46404 -1.783861,-19.04296 -0.151879,-14.47882 0.172834,-17.5679 2.444216,-23.25235 4.48774,-11.2312 9.894408,-19.533585 17.840287,-27.395223 4.379937,-4.333505 8.580872,-7.59741 13.118243,-10.192184 7.033607,-4.022294 11.890647,-5.718532 12.10406,-4.227137 0.216451,1.512599 -3.663759,4.899602 -12.459403,10.875719 -2.155397,1.464464 -8.13494,6.384981 -10.298039,8.474168 -8.210827,7.930267 -14.338387,19.485297 -17.015142,32.086267 -0.942784,4.4382 -1.332293,8.10677 -1.329642,12.52316 0.0019,3.20194 0.132432,4.8083 0.795708,9.79384 0.156453,1.17599 0.286522,3.37233 0.289038,4.88077 0.0048,2.87954 -0.342061,4.1471 -1.629685,5.9554 -0.818163,1.14901 -1.40303,1.01391 -2.07578,-0.47947 z"
       id="path1459" />
    <path
       style="fill:#552200;stroke:none;stroke-width:0.267269"
       d="m 90.411395,78.009816 c -1.659263,-0.30308 -2.026298,-0.727696 -1.640218,-1.897533 0.638212,-1.933803 3.323648,-3.43912 6.459678,-3.620966 3.46706,-0.201041 5.343355,1.06485 4.621331,3.117903 -0.607689,1.727954 -5.839756,3.058359 -9.440791,2.400596 z"
       id="path1461" />
    <path
       style="fill:#552200;stroke:none;stroke-width:0.267269"
       d="m 42.929686,178.33882 c -0.576204,-0.38474 -0.908637,-1.38395 -0.908637,-2.73112 0,-1.44181 0.586896,-2.94426 1.150107,-2.94426 1.01052,0 2.571154,2.20561 2.585796,3.65445 0.01328,1.31481 -1.869374,2.66053 -2.827266,2.02093 z"
       id="path1463" />
    <path
       style="fill:none;stroke:#552200;stroke-width:3.165;stroke-linecap:butt;stroke-linejoin:miter;stroke-miterlimit:4;stroke-dasharray:none;stroke-opacity:1"
       d="m 33.724131,125.48462 c 0,0 -3.610192,16.04399 0.03824,31.83533"
       id="path1583"
       sodipodi:nodetypes="cc" />
  </g>
</svg>
