<?xml version="1.0" encoding="UTF-8" standalone="no"?>
<svg
   xmlns:dc="http://purl.org/dc/elements/1.1/"
   xmlns:cc="http://creativecommons.org/ns#"
   xmlns:rdf="http://www.w3.org/1999/02/22-rdf-syntax-ns#"
   xmlns:svg="http://www.w3.org/2000/svg"
   xmlns="http://www.w3.org/2000/svg"
   xmlns:sodipodi="http://sodipodi.sourceforge.net/DTD/sodipodi-0.dtd"
   xmlns:inkscape="http://www.inkscape.org/namespaces/inkscape"
   width="209mm"
   height="79mm"
   viewBox="0 0 209 79"
   version="1.1"
   id="svg876"
   sodipodi:docname="Logo-text.svg"
   inkscape:export-filename="C:\Users\jbrown\Desktop\Logo.png"
   inkscape:export-xdpi="96"
   inkscape:export-ydpi="96"
   inkscape:version="1.0.1 (3bc2e813f5, 2020-09-07)">
  <defs
     id="defs870" />
  <sodipodi:namedview
     id="base"
     pagecolor="#ffffff"
     bordercolor="#666666"
     borderopacity="1.0"
     inkscape:pageopacity="0.0"
     inkscape:pageshadow="2"
     inkscape:zoom="1"
     inkscape:cx="491.09959"
     inkscape:cy="358.60154"
     inkscape:document-units="mm"
     inkscape:current-layer="layer1"
     inkscape:document-rotation="0"
     showgrid="false"
     inkscape:window-width="1920"
     inkscape:window-height="1017"
     inkscape:window-x="1912"
     inkscape:window-y="-8"
     inkscape:window-maximized="1"
     inkscape:pagecheckerboard="true"
     width="296mm" />
  <metadata
     id="metadata873">
    <rdf:RDF>
      <cc:Work
         rdf:about="">
        <dc:format>image/svg+xml</dc:format>
        <dc:type
           rdf:resource="http://purl.org/dc/dcmitype/StillImage" />
        <dc:title></dc:title>
      </cc:Work>
    </rdf:RDF>
  </metadata>
  <g
     inkscape:label="Layer 1"
     inkscape:groupmode="layer"
     id="layer1">
    <path
       id="path859"
       style="fill:#619ab2;fill-opacity:1;stroke-width:0.682641"
       d="M 37.875057,1.184452 C 34.180344,1.303568 28.577796,7.65756 21.76637,19.62698 15.724873,30.24353 12.043282,37.69227 8.5799983,46.30653 3.0125375,60.15461 2.3757661,66.7293 6.602081,66.7293 c 2.514512,0 4.743476,-1.72703 15.980621,-12.38327 5.436756,-5.15574 9.999152,-9.25986 10.138733,-9.12019 0.139661,0.1397 -1.623786,4.90563 -3.918888,10.59109 -2.295104,5.68545 -3.99822,10.62012 -3.784333,10.96604 0.835996,1.3527 1.759527,0.47318 3.40138,-3.23936 5.550124,-12.54981 20.799472,-28.46589 20.799472,-21.70892 0,2.33791 -1.313485,5.30057 -4.597917,10.37141 -3.409519,5.26393 -6.511818,12.85731 -5.961464,14.59134 h 2.55e-4 c 0.751419,2.36751 3.41255,1.40444 10.558133,-3.82151 7.898864,-5.77687 10.863768,-6.90916 19.874544,-7.58939 6.160338,-0.46505 8.178348,-1.24288 5.178088,-1.9959 -2.000309,-0.50203 -11.495094,0.74798 -16.125163,2.12297 -3.084531,0.91601 -8.152366,3.9287 -14.208159,8.44615 -1.215598,0.90682 -2.403664,1.45517 -2.639969,1.21876 -0.565319,-0.56531 3.292883,-8.76558 6.168917,-13.11123 4.720527,-7.13274 5.676855,-13.51212 2.157661,-14.39539 -2.336822,-0.58651 -5.554492,1.26732 -10.569118,6.08978 -2.399135,2.30721 -4.209055,3.73413 -4.021741,3.17096 0.18718,-0.56317 0.745457,-2.15569 1.240473,-3.53893 0.739259,-2.06698 0.741005,-2.70577 0.0103,-3.58636 -0.776835,-0.93602 -2.4533,0.42296 -13.261763,10.74985 C 11.236164,61.81801 7.9359145,64.68148 6.7431985,64.68148 c -0.2918308,0 -0.5307402,-1.15325 -0.5307402,-2.56283 0,-2.76073 1.9025302,-8.54875 5.9719507,-18.16823 2.381794,-5.63029 2.92965,-6.36179 7.824048,-10.4463 C 26.879448,27.7701 32.918101,21.18229 37.026092,14.9387 41.172914,8.636114 42.231065,5.164475 40.711815,2.845811 39.958407,1.695972 39.006161,1.147988 37.875126,1.184452 Z m 0.613871,2.059053 c 0.385204,0 0.517934,1.134803 0.312302,2.668407 -0.472411,3.522229 -5.188139,10.688178 -11.386946,17.303438 -4.803606,5.12632 -8.914238,8.63546 -8.914238,7.60985 0,-0.8267 7.44178,-13.93627 10.753354,-18.943114 2.7944,-4.224876 7.513151,-8.638581 9.235528,-8.638581 z M 7.8725127,36.04922 c -0.00444,0.002 -0.00966,0.005 -0.012038,0.006 -0.00102,8.8e-4 -0.00222,0.002 -0.00317,0.003 0.0057,-0.003 0.011405,-0.005 0.017218,-0.008 -6.383e-4,-2.6e-4 -0.00132,-6.4e-4 -0.00206,-0.001 z" />
    <path
       style="fill:#552200;stroke:none;stroke-width:0.129114"
       d="m 33.111854,77.62268 c -0.03551,-0.0339 -0.674624,-0.0995 -1.420262,-0.14604 -1.636963,-0.10217 -1.959871,-0.14684 -3.916871,-0.54243 -3.103208,-0.6272 -8.030183,-2.56308 -10.608528,-4.16824 -0.284054,-0.17683 -0.632805,-0.38367 -0.775006,-0.45966 -0.86819,-0.46384 -2.688707,-1.81871 -3.641121,-2.7098 -1.48136,-1.38597 -1.912863,-2.33231 -1.329477,-2.9157 0.529801,-0.5298 1.439401,-0.1918 3.486096,1.29543 4.157354,3.02092 6.940764,4.59742 9.663213,5.47317 3.052938,0.98204 4.656283,1.23065 8.553401,1.32628 5.767226,0.14145 9.290199,-0.53985 14.055885,-2.7184 2.514907,-1.14963 3.476676,-1.75009 5.81503,-3.63047 1.126276,-0.90568 1.000489,-0.79182 2.726592,-2.46799 1.956408,-1.89981 3.529662,-3.71555 4.240864,-4.8945 1.622967,-2.69041 2.450086,-3.44399 3.552966,-3.23709 0.558613,0.10486 0.746265,0.41436 0.587257,0.96879 -0.124993,0.43582 -0.832192,1.75264 -1.417937,2.64022 -0.193056,0.29253 -0.741356,1.12356 -1.218457,1.84673 -0.477099,0.72319 -1.405362,1.94331 -2.06281,2.71141 -5.472333,6.39337 -13.037088,10.39943 -21.513595,11.39293 -1.327608,0.15554 -4.687183,0.32115 -4.77724,0.23539 z"
       id="path1449" />
    <path
       style="fill:#552200;stroke:none;stroke-width:0.129114"
       d="m 64.768177,52.44975 c -0.210622,-0.21063 -0.196734,-1.4937 0.05093,-4.70471 0.294862,-3.82301 0.04053,-6.98828 -0.84409,-10.505 -1.10274,-4.38384 -3.6377,-9.19669 -6.524827,-12.38796 -2.09295,-2.31343 -3.9699,-3.87599 -7.168677,-5.96795 -2.777031,-1.81613 -4.591812,-2.71579 -6.099443,-3.02372 -2.528231,-0.51638 -3.9715,-1.24052 -3.9715,-1.99262 0,-0.95664 1.589273,-1.281737 3.744324,-0.76594 6.171684,1.47719 14.020702,7.31494 18.132592,13.48624 1.480016,2.22127 3.336505,6.13995 4.067711,8.58612 0.790216,2.64359 1.118594,6.10795 0.985209,10.39374 -0.156546,5.03004 -0.361726,6.38455 -1.028731,6.79127 -0.454363,0.27707 -1.112604,0.32143 -1.343495,0.0906 z"
       id="path1457" />
    <path
       style="fill:#552200;stroke:none;stroke-width:0.129114"
       d="M 2.6668809,54.44717 C 2.0286729,53.03046 1.8688635,51.32448 1.8051187,45.24774 1.7317477,38.25321 1.8886117,36.76091 2.9858899,34.01482 5.1538631,28.58915 7.7657592,24.57838 11.604317,20.78051 c 2.115894,-2.09346 4.145315,-3.67022 6.337264,-4.92371 3.397851,-1.94312 5.744229,-2.76255 5.847325,-2.04209 0.104559,0.73073 -1.769917,2.36695 -6.018986,5.25393 -1.041246,0.70747 -3.929892,3.08451 -4.974859,4.09377 -3.966551,3.83102 -6.9267015,9.41311 -8.2198081,15.50048 -0.455448,2.14405 -0.6436157,3.91629 -0.6423343,6.04979 9.172e-4,1.54682 0.063978,2.32284 0.3843964,4.73129 0.075572,0.5681 0.1384096,1.62914 0.1396293,2.35784 0.00238,1.39107 -0.1652457,2.00341 -0.7872811,2.87698 C 3.274418,55.23387 2.9918758,55.1686 2.6668809,54.44717 Z"
       id="path1459" />
    <path
       style="fill:#552200;stroke:none;stroke-width:0.129114"
       d="m 30.278366,14.11168 c -0.80157,-0.14636 -0.978881,-0.35154 -0.79237,-0.91668 0.308312,-0.934184 1.605615,-1.661381 3.120592,-1.749231 1.674895,-0.0971 2.581311,0.514417 2.23251,1.506221 -0.293567,0.83475 -2.821115,1.47745 -4.560732,1.15969 z"
       id="path1461" />
    <path
       style="fill:#552200;stroke:none;stroke-width:0.129114"
       d="M 7.3405274,62.5794 C 7.0621702,62.39355 6.9015751,61.91085 6.9015751,61.26005 c 0,-0.69654 0.2835227,-1.42234 0.5556026,-1.42234 0.4881703,0 1.242094,1.06549 1.2491665,1.76541 0.00649,0.63517 -0.9030712,1.28527 -1.3658168,0.97628 z"
       id="path1463" />
    <path
       style="fill:none;stroke:#552200;stroke-width:1.52897;stroke-linecap:butt;stroke-linejoin:miter;stroke-miterlimit:4;stroke-dasharray:none;stroke-opacity:1"
       d="m 2.8934352,37.04619 c 0,0 -1.7440403,7.75065 0.018469,15.37926"
       id="path1583"
       sodipodi:nodetypes="cc" />
    <text
       xml:space="preserve"
       style="font-style:normal;font-variant:normal;font-weight:bold;font-stretch:normal;font-size:38.5572px;line-height:1.45;font-family:Calibri;-inkscape-font-specification:'Calibri Bold';fill:#552200;fill-opacity:1;stroke:none;stroke-width:0.971744"
       x="73.497482"
       y="48.281204"
       id="text839"><tspan
         sodipodi:role="line"
         id="tspan837"
         x="73.497482"
         y="48.281204"
         style="font-style:normal;font-variant:normal;font-weight:bold;font-stretch:normal;font-size:38.5572px;font-family:Calibri;-inkscape-font-specification:'Calibri Bold';fill:#552200;fill-opacity:1;stroke-width:0.971744">Like</tspan></text>
    <text
       xml:space="preserve"
       style="font-style:normal;font-variant:normal;font-weight:bold;font-stretch:normal;font-size:38.5572px;line-height:1.25;font-family:sans-serif;-inkscape-font-specification:'sans-serif Bold';fill:#619ab2;fill-opacity:1;stroke:none;stroke-width:0.419099"
       x="135.70491"
       y="48.34552"
       id="text843"><tspan
         sodipodi:role="line"
         id="tspan841"
         x="135.70491"
         y="48.34552"
         style="font-style:normal;font-variant:normal;font-weight:bold;font-stretch:normal;font-size:38.5572px;font-family:calibri;-inkscape-font-specification:'calibri Bold';fill:#619ab2;fill-opacity:1;stroke-width:0.419099">New</tspan></text>
    <text
       xml:space="preserve"
       style="font-size:17.8816px;line-height:1.25;font-family:Calibri;-inkscape-font-specification:Calibri;fill:#552200;fill-opacity:1;stroke-width:0.419099"
       x="74.516449"
       y="67.624084"
       id="text847"><tspan
         sodipodi:role="line"
         id="tspan845"
         x="74.516449"
         y="67.624084"
         style="font-size:17.8816px;fill:#552200;fill-opacity:1;stroke-width:0.419099">Computer Repairs</tspan></text>
  </g>
</svg>
