<?xml version="1.0" encoding="UTF-8" standalone="no"?>
<svg
   xmlns:dc="http://purl.org/dc/elements/1.1/"
   xmlns:cc="http://creativecommons.org/ns#"
   xmlns:rdf="http://www.w3.org/1999/02/22-rdf-syntax-ns#"
   xmlns:svg="http://www.w3.org/2000/svg"
   xmlns="http://www.w3.org/2000/svg"
   xmlns:sodipodi="http://sodipodi.sourceforge.net/DTD/sodipodi-0.dtd"
   xmlns:inkscape="http://www.inkscape.org/namespaces/inkscape"
   version="1.1"
   id="svg2"
   width="99.156639"
   height="99.205917"
   viewBox="0 0 99.15664 99.205918"
   sodipodi:docname="phone-icon.svg"
   inkscape:version="1.0.1 (3bc2e813f5, 2020-09-07)">
  <metadata
     id="metadata8">
    <rdf:RDF>
      <cc:Work
         rdf:about="">
        <dc:format>image/svg+xml</dc:format>
        <dc:type
           rdf:resource="http://purl.org/dc/dcmitype/StillImage" />
        <dc:title></dc:title>
      </cc:Work>
    </rdf:RDF>
  </metadata>
  <defs
     id="defs6" />
  <sodipodi:namedview
     pagecolor="#ffffff"
     bordercolor="#666666"
     borderopacity="1"
     objecttolerance="10"
     gridtolerance="10"
     guidetolerance="10"
     inkscape:pageopacity="0"
     inkscape:pageshadow="2"
     inkscape:window-width="1920"
     inkscape:window-height="1017"
     id="namedview4"
     showgrid="false"
     inkscape:zoom="5.6568543"
     inkscape:cx="36.103595"
     inkscape:cy="57.766513"
     inkscape:window-x="-8"
     inkscape:window-y="-8"
     inkscape:window-maximized="1"
     inkscape:current-layer="g10"
     fit-margin-top="0"
     fit-margin-left="0"
     fit-margin-right="0"
     fit-margin-bottom="0" />
  <g
     inkscape:groupmode="layer"
     inkscape:label="Image"
     id="g10"
     transform="translate(-3.1676518,-585.20078)">
    <path
       style="fill:#000000;stroke-width:1.33333"
       id="path837"
       d="" />
    <path
       style="fill:#000000;stroke-width:1.33333"
       id="path837-6"
       d="" />
    <path
       style="fill:#619ab2;fill-opacity:1;fill-rule:evenodd;stroke:#552200;stroke-width:0;stroke-miterlimit:4;stroke-dasharray:none"
       id="path863"
       sodipodi:type="arc"
       sodipodi:cx="52.787949"
       sodipodi:cy="635.04449"
       sodipodi:rx="49.040588"
       sodipodi:ry="49.192158"
       sodipodi:start="6.2808903"
       sodipodi:end="6.2807828"
       sodipodi:arc-type="slice"
       d="M 101.82841,634.9316 A 49.040588,49.192158 0 0 1 52.901815,684.23652 49.040588,49.192158 0 0 1 3.7474955,635.16003 49.040588,49.192158 0 0 1 52.671446,585.85248 49.040588,49.192158 0 0 1 101.8284,634.92631 l -49.040451,0.11818 z" />
    <path
       style="fill:#ffffff;stroke:none;stroke-width:0.171616"
       d="m 58.726592,655.60891 c -3.45755,-0.59777 -8.626731,-3.38682 -12.013158,-6.48177 -2.669563,-2.43977 -5.746338,-5.7403 -7.443398,-7.98473 -5.613728,-7.42433 -7.49493,-14.39195 -5.499638,-20.36961 0.751608,-2.25175 1.560072,-3.61493 2.982908,-5.02964 2.412359,-2.39857 3.667985,-3.28538 4.797357,-3.38822 1.846049,-0.16811 3.217771,1.05331 5.63613,5.01859 1.274797,2.09021 1.745685,3.25162 1.873554,4.62096 0.167108,1.78953 -0.200546,2.32533 -3.710858,5.40803 -1.959436,1.72072 -2.244601,2.75861 -1.381818,5.02927 1.387981,3.65287 6.494434,9.42728 9.979377,11.28473 2.126015,1.13316 3.30239,0.86489 5.551818,-1.266 1.835168,-1.73847 2.429607,-2.13646 3.531502,-2.36443 2.280627,-0.4718 4.130546,0.5437 8.411749,4.61753 1.183801,1.12647 2.043499,2.53763 2.043499,3.35434 0,1.211 -1.171776,2.68414 -3.775449,4.74644 -2.095484,1.65976 -3.801613,2.4103 -6.233629,2.74221 -1.305748,0.1782 -3.883942,0.21202 -4.749946,0.0623 z"
       id="path861" />
  </g>
</svg>
